<svg id="Layer_1" data-name="Layer 1" xmlns="http://www.w3.org/2000/svg" viewBox="0 0 299.8 149.86"><defs><style>.cls-1{fill:#006287;}.cls-2{fill:#fff;}.cls-3{fill:#b2bd35;}</style></defs><title>bannerDel</title><rect class="cls-1" width="299.8" height="149.86"/><path class="cls-2" d="M45.35,78.08a24.73,24.73,0,0,1-3-.14c-.25,0-.27-.11-.27-.66,0-.38,0-.23,0-.76,0-.23,0-.28.21-.28a24.22,24.22,0,0,0,3.3.25c1.22,0,1.45-.21,1.45-1.17a1.66,1.66,0,0,0-.17-1c-.21-.21-.55-.32-2.32-.85a5.63,5.63,0,0,1-2.17-1,2.54,2.54,0,0,1-.56-1.84,3.33,3.33,0,0,1,.64-2.19c.56-.62,1.32-.77,3.8-.77.51,0,1,0,1.55,0s.7.1.7.72c0,.15,0,0,0,.66,0,.28-.08.36-.38.36-.47,0-1.34-.19-2.79-.19s-1.6.11-1.6,1.2a2,2,0,0,0,0,.55c.08.32.32.43,2,1l1.38.45c1.41.45,1.79,1,1.79,2.6C49,77.51,48.25,78.08,45.35,78.08Z" transform="translate(-0.2)"/><path class="cls-2" d="M58.45,68.82,53.93,81.72c-.13.35-.19.41-.7.41H52.16c-.32,0-.34-.06-.34-.19a.9.9,0,0,1,.13-.38l1.62-4L50,68.39a1.06,1.06,0,0,1,0-.22c0-.19.25-.21.38-.21h.94c.58,0,.73,0,.83.36l2.28,6.95,2.13-6.72c.17-.51.3-.59.81-.59h.92c.26,0,.37.08.37.25A3.28,3.28,0,0,1,58.45,68.82Z" transform="translate(-0.2)"/><path class="cls-2" d="M63.22,78.08a24.62,24.62,0,0,1-3-.14c-.26,0-.28-.11-.28-.66,0-.38,0-.23,0-.76,0-.23,0-.28.22-.28a24,24,0,0,0,3.3.25c1.21,0,1.45-.21,1.45-1.17a1.66,1.66,0,0,0-.17-1c-.21-.21-.55-.32-2.32-.85a5.71,5.71,0,0,1-2.17-1,2.56,2.56,0,0,1-.55-1.84,3.34,3.34,0,0,1,.64-2.19c.56-.62,1.32-.77,3.8-.77.51,0,1,0,1.55,0s.71.1.71.72c0,.15,0,0,0,.66,0,.28-.08.36-.38.36-.47,0-1.34-.19-2.79-.19s-1.6.11-1.6,1.2a1.72,1.72,0,0,0,0,.55c.09.32.32.43,2,1l1.38.45c1.41.45,1.79,1,1.79,2.6C66.82,77.51,66.12,78.08,63.22,78.08Z" transform="translate(-0.2)"/><path class="cls-2" d="M73.72,69.52H71.51v5.42c0,.83,0,1,.12,1.23a.67.67,0,0,0,.68.38c.62,0,1.43-.32,1.75-.32s.21,0,.21.28v.81c0,.57,0,.61-.55.66a17.25,17.25,0,0,1-1.81.1c-2,0-2.37-.59-2.37-3.08V69.52H69c-.49,0-.55-.1-.55-.58v-.49c0-.36.25-.49.55-.49h.53V66c0-.51.11-.58.55-.58H71c.34,0,.47.25.47.58v2h2.22c.47,0,.6.1.6.49v.29C74.32,69.44,74.27,69.52,73.72,69.52Z" transform="translate(-0.2)"/><path class="cls-2" d="M83,73.57H77.58c0,1.15,0,2.35.71,2.71a4,4,0,0,0,1.56.29,18.9,18.9,0,0,0,3.32-.48c.15,0,.17.14.21.64a4,4,0,0,1,0,.51c0,.41,0,.53-.45.62a18.11,18.11,0,0,1-3.13.3,4.49,4.49,0,0,1-3.28-1c-.69-.72-.94-2-.94-4.13,0-2,.15-3,.64-3.88s1.72-1.45,3.49-1.45,2.71.45,3.24,1.43a7.32,7.32,0,0,1,.57,3.52C83.55,73.42,83.53,73.57,83,73.57Zm-3.31-4.3c-1.79,0-2.15.47-2.15,2.39v.42h4.07c0-.38,0-.6,0-1C81.67,69.66,81.27,69.26,79.73,69.26Z" transform="translate(-0.2)"/><path class="cls-2" d="M98,77.87h-.75c-.66,0-.75,0-.75-.62V71.52a5.13,5.13,0,0,0-.19-2,.66.66,0,0,0-.6-.31,5.38,5.38,0,0,0-2.53,1.4v6.61c0,.48-.11.62-.47.62h-.77c-.66,0-.72,0-.72-.62V71.52a4.58,4.58,0,0,0-.22-2,.64.64,0,0,0-.6-.31,5.5,5.5,0,0,0-2.53,1.4v6.61c0,.48-.11.62-.47.62h-.75c-.66,0-.75,0-.75-.62V68.54c0-.51.11-.57.56-.57h.93c.35,0,.47.25.47.57v.36a5.43,5.43,0,0,1,3.24-1.28A1.82,1.82,0,0,1,93,69a5.82,5.82,0,0,1,3.41-1.41c1.45,0,2.06,1.09,2.06,2.75v6.89C98.46,77.74,98.37,77.87,98,77.87Z" transform="translate(-0.2)"/><path class="cls-2" d="M109.13,77.87h-1.36c-.28,0-.4-.09-.68-.4L103,72.59v4.67c0,.48-.09.62-.47.62h-.74c-.66,0-.75,0-.75-.62v-13c0-.52.24-.58.68-.58h.94c.36,0,.34.26.34.58v7.07l3.13-3a.89.89,0,0,1,.81-.28h1.13c.3,0,.43.06.43.21s-.08.22-.38.5l-3.45,3.2,4.81,5.63c0,.06.11.13.11.17S109.41,77.87,109.13,77.87Z" transform="translate(-0.2)"/><path class="cls-2" d="M117.79,76.85a4.1,4.1,0,0,1-3.39,1.3,4.18,4.18,0,0,1-3.41-1.3,5.68,5.68,0,0,1-1.07-3.94,5.76,5.76,0,0,1,1.07-4,4.21,4.21,0,0,1,3.41-1.3,4.13,4.13,0,0,1,3.39,1.3,5.65,5.65,0,0,1,1.09,4A5.57,5.57,0,0,1,117.79,76.85Zm-1.32-6.69c-.37-.71-.81-.9-2.07-.9s-1.7.19-2.07.9a6.19,6.19,0,0,0-.42,2.75,6.25,6.25,0,0,0,.42,2.75c.35.68.79.88,2.07.88s1.7-.2,2.07-.88a6.21,6.21,0,0,0,.43-2.75A6.15,6.15,0,0,0,116.47,70.16Z" transform="translate(-0.2)"/><path class="cls-2" d="M133.22,77.87h-.74c-.66,0-.75,0-.75-.62V71.52a5,5,0,0,0-.19-2,.66.66,0,0,0-.59-.31,5.37,5.37,0,0,0-2.53,1.4v6.61c0,.48-.1.62-.47.62h-.77c-.66,0-.72,0-.72-.62V71.52a4.56,4.56,0,0,0-.21-2,.64.64,0,0,0-.6-.31,5.45,5.45,0,0,0-2.52,1.4v6.61c0,.48-.11.62-.47.62h-.75c-.66,0-.74,0-.74-.62V68.54c0-.51.1-.57.55-.57h.93c.34,0,.47.25.47.57v.36a5.38,5.38,0,0,1,3.23-1.28A1.82,1.82,0,0,1,128.23,69a5.78,5.78,0,0,1,3.39-1.41c1.45,0,2.07,1.09,2.07,2.75v6.89C133.69,77.74,133.6,77.87,133.22,77.87Z" transform="translate(-0.2)"/><path class="cls-2" d="M144.22,76.23a3.92,3.92,0,0,1-3.73,1.92,8.78,8.78,0,0,1-2.3-.32l0,3.75c0,.49-.11.62-.47.62H137c-.66,0-.75,0-.75-.62l0-13c0-.51.1-.57.55-.57h.94c.34,0,.47.25.47.57v.36a7.37,7.37,0,0,1,3.51-1.26,2.46,2.46,0,0,1,2.09.88c.72.85,1,1.93,1,4.2A7.34,7.34,0,0,1,144.22,76.23Zm-1.64-6a1.17,1.17,0,0,0-1.2-1,7.32,7.32,0,0,0-3.2,1.3v5.6a7.3,7.3,0,0,0,2.36.4,2.49,2.49,0,0,0,1.09-.19c.79-.34,1.15-1.54,1.15-3.61A16,16,0,0,0,142.58,70.27Z" transform="translate(-0.2)"/><path class="cls-2" d="M154,77.87h-.76c-.64,0-.73,0-.73-.62v-.45a5.77,5.77,0,0,1-3.45,1.34c-1.79,0-2.64-1-2.64-2.94,0-1.53.51-2.54,1.56-2.94a14.8,14.8,0,0,1,4.54-.51,6.4,6.4,0,0,0-.21-1.92,1.21,1.21,0,0,0-1.2-.6,16,16,0,0,0-3.26.55,1,1,0,0,1-.25,0c-.17,0-.28-.13-.28-.4v-.79c0-.39.06-.51.3-.55a20.51,20.51,0,0,1,3.41-.42,3.64,3.64,0,0,1,2.73.89c.51.64.73,1.18.73,3.35v5.35C154.5,77.74,154.39,77.87,154,77.87Zm-1.49-4.54c-.51,0-1,0-1.43,0-2.37,0-2.79.26-2.79,1.68,0,1.18.3,1.66,1.06,1.66a6,6,0,0,0,3.15-1.37Z" transform="translate(-0.2)"/><path class="cls-2" d="M164.55,77.87h-.75c-.66,0-.75,0-.75-.62V71.52a4.58,4.58,0,0,0-.21-2c-.15-.19-.41-.31-1-.31-1.15,0-1.88.55-3,1.43v6.58c0,.48-.1.62-.46.62h-.75c-.66,0-.74,0-.74-.62V68.54c0-.51.1-.57.55-.57h.94c.34,0,.46.25.46.57v.34a5,5,0,0,1,3.24-1.25c2.34,0,2.87,1.47,2.87,2.75v6.89C165,77.74,164.91,77.87,164.55,77.87Z" transform="translate(-0.2)"/><path class="cls-2" d="M168.93,66.35h-.83c-.64,0-.72,0-.72-.62V65c0-.51.1-.57.55-.57h1c.34,0,.47.25.47.57v.77C169.41,66.22,169.3,66.35,168.93,66.35Zm0,11.52h-.83c-.64,0-.72,0-.72-.62V68.54c0-.51.1-.57.55-.57h1c.34,0,.47.25.47.57v8.72C169.41,77.74,169.3,77.87,168.93,77.87Z" transform="translate(-0.2)"/><path class="cls-2" d="M179.27,73.57h-5.45c0,1.15,0,2.35.7,2.71a4,4,0,0,0,1.55.29,18.73,18.73,0,0,0,3.32-.48c.15,0,.18.14.22.64a3.72,3.72,0,0,1,0,.51c0,.41,0,.53-.45.62a18,18,0,0,1-3.13.3,4.49,4.49,0,0,1-3.28-1c-.68-.72-.94-2-.94-4.13,0-2,.15-3,.64-3.88s1.72-1.45,3.5-1.45,2.7.45,3.24,1.43a7.3,7.3,0,0,1,.58,3.52C179.78,73.42,179.76,73.57,179.27,73.57Zm-3.3-4.3c-1.79,0-2.15.47-2.15,2.39v.42h4.07c0-.38,0-.6,0-1C177.91,69.66,177.5,69.26,176,69.26Z" transform="translate(-0.2)"/><path class="cls-2" d="M186.48,69.52h-2.22v5.42c0,.83,0,1,.13,1.23a.65.65,0,0,0,.68.38c.62,0,1.43-.32,1.75-.32s.21,0,.21.28v.81c0,.57,0,.61-.56.66a17.14,17.14,0,0,1-1.81.1c-2,0-2.37-.59-2.37-3.08V69.52h-.53c-.49,0-.55-.1-.55-.58v-.49c0-.36.26-.49.55-.49h.53V66c0-.51.11-.58.56-.58h.94c.35,0,.47.25.47.58v2h2.22c.47,0,.6.1.6.49v.29C187.08,69.44,187,69.52,186.48,69.52Z" transform="translate(-0.2)"/><path class="cls-3" d="M18.9,8.24H53.54v52H18.9v8.55H36.26V51.53h-26V16.89H18.9Zm8.2,17.28H18.82V42.89H36.27v8.64h8.48V34.33H27.46V25.52Zm17.81-8.73H27.46v8.73H44.91Z" transform="translate(-0.2)"/></svg>